<svg width="40" height="40" viewBox="0 0 40 40" fill="none" xmlns="http://www.w3.org/2000/svg">
<circle cx="20" cy="20" r="20" fill="#0076A7"/>
<path d="M16.04 17.64C16.1147 17.1173 16.2587 16.656 16.472 16.256C16.6853 15.8507 16.9547 15.512 17.28 15.24C17.6107 14.968 17.9867 14.7627 18.408 14.624C18.8347 14.48 19.2933 14.408 19.784 14.408C20.2693 14.408 20.7173 14.4773 21.128 14.616C21.5387 14.7547 21.8907 14.952 22.184 15.208C22.4827 15.464 22.7147 15.7733 22.88 16.136C23.0453 16.4987 23.128 16.9013 23.128 17.344C23.128 17.7067 23.08 18.032 22.984 18.32C22.8933 18.6027 22.76 18.8507 22.584 19.064C22.4133 19.2773 22.2053 19.4587 21.96 19.608C21.7147 19.7573 21.44 19.88 21.136 19.976C21.8827 20.168 22.4427 20.4987 22.816 20.968C23.1947 21.432 23.384 22.0133 23.384 22.712C23.384 23.24 23.2827 23.7147 23.08 24.136C22.8827 24.5573 22.6107 24.9173 22.264 25.216C21.9173 25.5093 21.512 25.736 21.048 25.896C20.5893 26.0507 20.096 26.128 19.568 26.128C18.96 26.128 18.44 26.0533 18.008 25.904C17.576 25.7493 17.2107 25.5387 16.912 25.272C16.6133 25.0053 16.368 24.6907 16.176 24.328C15.984 23.96 15.8213 23.5627 15.688 23.136L16.304 22.88C16.464 22.8107 16.6187 22.792 16.768 22.824C16.9227 22.856 17.0347 22.944 17.104 23.088C17.1733 23.2373 17.2587 23.416 17.36 23.624C17.4667 23.832 17.6107 24.032 17.792 24.224C17.9733 24.416 18.2027 24.5787 18.48 24.712C18.7627 24.8453 19.12 24.912 19.552 24.912C19.952 24.912 20.3013 24.848 20.6 24.72C20.904 24.5867 21.1547 24.416 21.352 24.208C21.5547 24 21.7067 23.768 21.808 23.512C21.9093 23.256 21.96 23.0027 21.96 22.752C21.96 22.4427 21.92 22.16 21.84 21.904C21.76 21.648 21.6107 21.4267 21.392 21.24C21.1733 21.0533 20.872 20.9067 20.488 20.8C20.1093 20.6933 19.6213 20.64 19.024 20.64V19.608C19.5147 19.6027 19.9307 19.5493 20.272 19.448C20.6187 19.3467 20.8987 19.208 21.112 19.032C21.3307 18.856 21.488 18.6453 21.584 18.4C21.6853 18.1547 21.736 17.8827 21.736 17.584C21.736 17.2533 21.6827 16.9653 21.576 16.72C21.4747 16.4747 21.3333 16.272 21.152 16.112C20.9707 15.952 20.7547 15.832 20.504 15.752C20.2587 15.672 19.992 15.632 19.704 15.632C19.416 15.632 19.1467 15.6747 18.896 15.76C18.6507 15.8453 18.432 15.9653 18.24 16.12C18.0533 16.2693 17.896 16.448 17.768 16.656C17.64 16.864 17.5493 17.0933 17.496 17.344C17.4267 17.5307 17.3387 17.656 17.232 17.72C17.1307 17.7787 16.9813 17.7947 16.784 17.768L16.04 17.64Z" fill="white"/>
</svg>
