<svg width="40" height="40" viewBox="0 0 40 40" fill="none" xmlns="http://www.w3.org/2000/svg">
<circle cx="20" cy="20" r="20" fill="#0076A7"/>
<path d="M22.896 24.648C23.0507 24.648 23.1733 24.6933 23.264 24.784C23.3547 24.8747 23.4 24.992 23.4 25.136V26H15.752V25.512C15.752 25.4107 15.7733 25.3067 15.816 25.2C15.8587 25.0933 15.9253 24.9947 16.016 24.904L19.688 21.216C19.992 20.9067 20.2693 20.6107 20.52 20.328C20.7707 20.04 20.984 19.752 21.16 19.464C21.336 19.176 21.472 18.8853 21.568 18.592C21.664 18.2933 21.712 17.976 21.712 17.64C21.712 17.304 21.6587 17.0107 21.552 16.76C21.4453 16.504 21.2987 16.2933 21.112 16.128C20.9307 15.9627 20.7147 15.84 20.464 15.76C20.2133 15.6747 19.944 15.632 19.656 15.632C19.3627 15.632 19.0933 15.6747 18.848 15.76C18.6027 15.8453 18.384 15.9653 18.192 16.12C18.0053 16.2693 17.848 16.448 17.72 16.656C17.592 16.864 17.5013 17.0933 17.448 17.344C17.384 17.5307 17.296 17.656 17.184 17.72C17.0773 17.7787 16.9253 17.7947 16.728 17.768L15.984 17.64C16.0587 17.1173 16.2027 16.656 16.416 16.256C16.6347 15.8507 16.9067 15.512 17.232 15.24C17.5627 14.968 17.9387 14.7627 18.36 14.624C18.7813 14.48 19.2373 14.408 19.728 14.408C20.2133 14.408 20.6667 14.48 21.088 14.624C21.5093 14.768 21.8747 14.9787 22.184 15.256C22.4933 15.528 22.736 15.8613 22.912 16.256C23.088 16.6507 23.176 17.0987 23.176 17.6C23.176 18.0267 23.112 18.424 22.984 18.792C22.856 19.1547 22.6827 19.5013 22.464 19.832C22.2453 20.1627 21.992 20.4853 21.704 20.8C21.4213 21.1147 21.12 21.432 20.8 21.752L17.776 24.84C17.9893 24.7813 18.2053 24.736 18.424 24.704C18.6427 24.6667 18.8533 24.648 19.056 24.648H22.896Z" fill="white"/>
</svg>
